<!DOCTYPE svg PUBLIC "-//W3C//DTD SVG 1.1//EN" "http://www.w3.org/Graphics/SVG/1.1/DTD/svg11.dtd">
<!-- Uploaded to: SVG Repo, www.svgrepo.com, Transformed by: SVG Repo Mixer Tools -->
<svg fill="#ffffff" width="800px" height="800px" viewBox="0 0 32 32" version="1.1" xmlns="http://www.w3.org/2000/svg" stroke="#ffffff">
<g id="SVGRepo_bgCarrier" stroke-width="0"/>
<g id="SVGRepo_tracerCarrier" stroke-linecap="round" stroke-linejoin="round"/>
<g id="SVGRepo_iconCarrier"> <title>arrow-left-to-line</title> <path d="M30 15.25h-20.189l3.72-3.72c0.131-0.135 0.212-0.319 0.212-0.523 0-0.414-0.336-0.75-0.75-0.75-0.203 0-0.388 0.081-0.523 0.213l-5 5c-0.025 0.025-0.017 0.063-0.037 0.090-0.041 0.053-0.099 0.089-0.126 0.153-0.013 0.050-0.020 0.108-0.020 0.167 0 0.010 0 0.021 0.001 0.031l-0-0.001c-0.009 0.041-0.014 0.088-0.014 0.136 0 0.004 0 0.007 0 0.011v-0.001c0.006 0.184 0.080 0.35 0.197 0.475l-0-0 5 5.001c0.136 0.137 0.324 0.221 0.532 0.221 0.415 0 0.751-0.336 0.751-0.751 0-0.208-0.085-0.397-0.222-0.533l-3.72-3.719h20.189c0.414 0 0.75-0.336 0.75-0.75s-0.336-0.75-0.75-0.75v0zM2 1.25c-0.414 0-0.75 0.336-0.75 0.75v0 28c0 0.414 0.336 0.75 0.75 0.75s0.75-0.336 0.75-0.75v0-28c-0-0.414-0.336-0.75-0.75-0.75v0z"/> </g>
</svg>